<svg xmlns="http://www.w3.org/2000/svg" xmlns:xlink="http://www.w3.org/1999/xlink" width="500" zoomAndPan="magnify" viewBox="0 0 375 374.999991" height="500" preserveAspectRatio="xMidYMid meet" version="1.0"><defs><g/></defs><g fill="#ffffff" fill-opacity="1"><g transform="translate(17.012699, 235.522888)"><g><path d="M 10.203125 0 L 10.203125 -94.875 L 37.234375 -94.875 L 79.78125 -27.59375 L 81.21875 -27.59375 L 79.921875 -94.875 L 100.1875 -94.875 L 100.1875 0 L 75.609375 0 L 30.625 -70.15625 L 29.1875 -70.15625 L 30.328125 0 Z M 10.203125 0 "/></g></g></g><g fill="#ffffff" fill-opacity="1"><g transform="translate(127.40675, 235.522888)"><g><path d="M 10.203125 0 L 10.203125 -94.875 L 41.25 -94.875 L 67.28125 -23.4375 L 68 -23.4375 L 93.578125 -94.875 L 123.34375 -94.875 L 123.34375 0 L 103.640625 0 L 104.796875 -73.890625 L 103.359375 -73.890625 L 75.1875 0 L 57.640625 0 L 29.75 -73.890625 L 28.3125 -73.890625 L 29.46875 0 Z M 10.203125 0 "/></g></g></g><g fill="#ffffff" fill-opacity="1"><g transform="translate(260.799581, 235.522888)"><g><path d="M 53.625 2.015625 C 46.238281 2.015625 39.644531 0.960938 33.84375 -1.140625 C 28.050781 -3.253906 23.140625 -6.367188 19.109375 -10.484375 C 15.085938 -14.609375 12.019531 -19.6875 9.90625 -25.71875 C 7.800781 -31.757812 6.75 -38.664062 6.75 -46.4375 C 6.75 -54.476562 7.828125 -61.585938 9.984375 -67.765625 C 12.140625 -73.953125 15.226562 -79.222656 19.25 -83.578125 C 23.28125 -87.941406 28.070312 -91.25 33.625 -93.5 C 39.1875 -95.757812 45.421875 -96.890625 52.328125 -96.890625 C 57.691406 -96.890625 62.625 -96.171875 67.125 -94.734375 C 71.632812 -93.296875 75.515625 -91.257812 78.765625 -88.625 C 82.023438 -85.988281 84.566406 -82.773438 86.390625 -78.984375 C 88.210938 -75.203125 89.125 -70.960938 89.125 -66.265625 L 70 -61.375 C 70 -65.5 69.132812 -68.925781 67.40625 -71.65625 C 65.6875 -74.382812 63.4375 -76.441406 60.65625 -77.828125 C 57.882812 -79.222656 54.867188 -79.921875 51.609375 -79.921875 C 48.734375 -79.921875 45.925781 -79.34375 43.1875 -78.1875 C 40.457031 -77.039062 37.96875 -75.195312 35.71875 -72.65625 C 33.46875 -70.125 31.695312 -66.820312 30.40625 -62.75 C 29.113281 -58.675781 28.46875 -53.664062 28.46875 -47.71875 C 28.46875 -40.050781 29.566406 -33.796875 31.765625 -28.953125 C 33.972656 -24.117188 37.015625 -20.578125 40.890625 -18.328125 C 44.773438 -16.078125 49.160156 -14.953125 54.046875 -14.953125 C 59.222656 -14.953125 63.269531 -16.03125 66.1875 -18.1875 C 69.113281 -20.34375 71.222656 -23.144531 72.515625 -26.59375 C 73.816406 -30.039062 74.515625 -33.679688 74.609375 -37.515625 L 92.859375 -34.640625 C 92.765625 -29.566406 92.019531 -24.800781 90.625 -20.34375 C 89.238281 -15.882812 86.988281 -11.976562 83.875 -8.625 C 80.757812 -5.269531 76.707031 -2.65625 71.71875 -0.78125 C 66.738281 1.082031 60.707031 2.015625 53.625 2.015625 Z M 53.625 2.015625 "/></g></g></g></svg>