<?xml version="1.0" encoding="utf-8"?>
<svg xmlns="http://www.w3.org/2000/svg" viewBox="0 0 463.97 463.97">
  <defs>
    <style>.cls-1{fill:#e5445a;}.cls-2{fill:#7cefec;}.cls-3{fill:#fff;}</style>
  </defs>
  <g data-name="Layer 2" id="Layer_2">
    <g data-name="图层 1" id="_1">
      <circle cx="231.98" cy="231.98" r="231.98"/>
      <path class="cls-1" d="M376.92,185.25a6.22,6.22,0,1,1-6.21-6.21,6.22,6.22,0,0,1,6.21,6.21"/>
      <path class="cls-2" d="M376.92,204.31a6.22,6.22,0,1,1-6.21-6.21,6.22,6.22,0,0,1,6.21,6.21"/>
      <path class="cls-3" d="M87.09,156.08H133l-4.22,13.14H116.89l0,45.84v2.75H102.05V169.21H88.85l-1.75,0Z"/>
      <path class="cls-3" d="M209.53,156.08h47l-4.22,13.14h-13l0,45.84v2.78H224.48s0-.47,0-1V169.21H211.28l-1.74,0Z"/>
      <polygon class="cls-3" points="135.83 177.05 135.83 175.71 150.56 175.71 150.57 177.05 150.59 213.92 150.54 217.79 135.92 217.79 135.92 215.7 135.83 177.05"/>
      <polygon class="cls-3" points="157.65 158.81 157.65 155.9 160.59 155.9 169.76 155.9 172.22 155.9 172.22 158.43 172.23 184.65 186.94 170.34 204.51 170.34 186.06 188.24 206.72 217.8 190.51 217.8 176.72 197.3 172.35 201.54 172.36 217.83 157.71 217.8 157.71 216.48 157.65 158.81"/>
      <polygon class="cls-3" points="308.8 158.81 308.8 155.9 311.73 155.9 320.9 155.9 323.36 155.9 323.36 158.43 323.38 184.65 338.09 170.34 355.65 170.34 337.21 188.24 357.87 217.8 341.65 217.8 327.87 197.3 323.5 201.54 323.51 217.83 308.85 217.8 308.85 216.48 308.8 158.81"/>
      <path class="cls-3" d="M300.47,182.68a25.44,25.44,0,0,0-5.37-8,24.9,24.9,0,0,0-8-5.32l-.85-.34-.31-.11-.53-.19-.41-.13-.42-.13-.49-.14-.18,0c-.71-.18-1.43-.34-2.16-.47h-.07l-.77-.11c-.56-.08-1.12-.14-1.69-.18s-.85-.05-1.28-.06l-.64,0h-.61c-.46,0-.92,0-1.38.07a25.09,25.09,0,0,0-2.89.38L272,168l-.43.09-1,.24a25.67,25.67,0,0,0-6.05,2.49,24.3,24.3,0,0,0-5.08,3.89A24.88,24.88,0,0,0,253,185.8a25.32,25.32,0,0,0-.9,6.78,24.74,24.74,0,0,0,.91,6.76,25.2,25.2,0,0,0,2.53,6,24.87,24.87,0,0,0,3.92,5.08,25,25,0,0,0,11.13,6.41c.35.1.7.18,1.05.26l.37.08.7.13.43.08.73.1.37.05c.39.05.78.08,1.17.11s1,.06,1.48.06h.94c.5,0,1,0,1.49-.06s.92-.08,1.38-.14l.87-.13.48-.08.62-.12.38-.09,1-.25a24.81,24.81,0,0,0,15-11.49,25.62,25.62,0,0,0,2.53-6,25.89,25.89,0,0,0-1.09-16.66m-11.41,13.19a12.1,12.1,0,0,1-1.23,2.93,11.69,11.69,0,0,1-1.9,2.47,12,12,0,0,1-2.46,1.9,12.32,12.32,0,0,1-2.92,1.21,12.12,12.12,0,0,1-2.78.42h-.47a13.19,13.19,0,0,1-2-.16,10.36,10.36,0,0,1-1.28-.27,12.29,12.29,0,0,1-2.94-1.21,12.16,12.16,0,0,1-5.6-7.3,11.86,11.86,0,0,1-.44-3.28,12.32,12.32,0,0,1,.43-3.29,12.11,12.11,0,0,1,3.13-5.39,11.65,11.65,0,0,1,2.47-1.89,12.46,12.46,0,0,1,2.93-1.21q.64-.17,1.32-.27a12.77,12.77,0,0,1,2-.16h.55a12.27,12.27,0,0,1,4.22.92,12.1,12.1,0,0,1,6.48,6.46,11.85,11.85,0,0,1,1,4.81,12.25,12.25,0,0,1-.44,3.28"/>
      <path class="cls-3" d="M150.62,163.48a7.41,7.41,0,1,1-7.41-7.4,7.41,7.41,0,0,1,7.41,7.4"/>
      <path class="cls-3" d="M112.86,274.44l15.41-32.08h5.38L139,286h-5.83l-4-32.84-13.63,28h-5.19l-13.76-28-4,32.84H86.75l5.32-43.68h5.39Z"/>
      <path class="cls-3" d="M170.35,286v-4.57c-2,3.3-6.08,5.2-10.39,5.2a14.68,14.68,0,0,1-10.65-4.31,16.39,16.39,0,0,1,0-22.31A14.63,14.63,0,0,1,160,255.8c4.31,0,8.55,1.84,10.39,5.07v-4.43h5.71V286Zm-3-22a10.14,10.14,0,0,0-6.85-2.6,9.38,9.38,0,0,0-6.9,2.73,9.25,9.25,0,0,0-2.73,7,9.7,9.7,0,0,0,2.79,7.1,9.31,9.31,0,0,0,6.84,2.79,9.9,9.9,0,0,0,7-2.66,9.43,9.43,0,0,0,2.85-7.23A9,9,0,0,0,167.31,264Z"/>
      <path class="cls-3" d="M191.46,286h-5.77v-29.6h5.77v6.65c1.46-4.88,4.18-7.29,8.24-7.29a9.07,9.07,0,0,1,5.14,1.14l-.89,5.39a9.76,9.76,0,0,0-4.38-1c-5.38,0-8.11,5.57-8.11,13.94Z"/>
      <path class="cls-3" d="M216.43,271.59V286h-5.7v-45.7h5.7v26.43l10.21-10.33h7.86l-12.68,12.8L237.54,286h-7.61Z"/>
      <path class="cls-3" d="M268.54,273.42h-24c.7,4.89,4.5,8.05,9.58,8.05a9.57,9.57,0,0,0,8.49-4.56c.57.19,1.39.57,2.53,1l2.41.89c-2.47,5.07-7.73,7.86-13.63,7.86a14.9,14.9,0,0,1-10.83-4.31,15.16,15.16,0,0,1-4.32-11.22,14.67,14.67,0,0,1,15.15-15.34,14,14,0,0,1,10.53,4.25c2.79,2.79,4.18,6.47,4.18,11.09A21.6,21.6,0,0,1,268.54,273.42Zm-5.64-4.5a8.71,8.71,0,0,0-9-7.92c-5,0-8.68,3-9.38,7.92Z"/>
      <path class="cls-3" d="M283.94,256.44h6.27v4.88h-6.27V286h-5.77V261.32h-5.32v-4.88h5.32V245.28h5.77Z"/>
      <path class="cls-3" d="M296.74,242.87a4.18,4.18,0,0,1,5.64,0,3.57,3.57,0,0,1,0,5.33,4.2,4.2,0,0,1-5.64,0A3.69,3.69,0,0,1,296.74,242.87Zm0,43.17v-29.6h5.71V286Z"/>
      <path class="cls-3" d="M317.85,286h-5.77v-29.6h5.77v4.43c1.71-3.29,5.64-5.07,9.25-5.07,7.36,0,11.41,4.76,11.41,13.12V286h-5.77V269.3c0-4.88-2.47-7.86-6.52-7.86-4.63,0-8.37,2.79-8.37,8.62Z"/>
      <path class="cls-3" d="M352.2,290.28a9.78,9.78,0,0,0,8.56,5.08c7,0,10.52-4.5,10.52-13.44,0-.19-.06-.51-.06-.7-1.71,3.36-6.09,5.45-10.4,5.45a14.62,14.62,0,0,1-10.65-4.25,14.8,14.8,0,0,1-4.37-11.09,15,15,0,0,1,4.37-11.22,14.71,14.71,0,0,1,10.65-4.31c4.31,0,8.56,2,10.4,5.26v-4.62h5.7v25.1c0,12.87-5.38,19.27-16.16,19.27a15.08,15.08,0,0,1-13.38-8c.32-.13,1.15-.57,2.54-1.33Zm16.1-26.17a9.84,9.84,0,0,0-7-2.67,9.28,9.28,0,0,0-6.84,2.79,9.56,9.56,0,0,0-2.79,7,9.36,9.36,0,0,0,2.72,7.1,9.64,9.64,0,0,0,6.91,2.66,9.94,9.94,0,0,0,6.85-2.66,10.17,10.17,0,0,0,.12-14.26Z"/>
      <path class="cls-3" d="M138.5,303h17.43q6.47,0,9.7,4a15.89,15.89,0,0,1,0,19.39c-2.15,2.6-5.39,3.93-9.7,3.93H144.46v16.36h-6Zm6,5.52V324.8h11.09c5,0,7.48-3.62,7.48-8.12s-2.41-8.17-7.16-8.17Z"/>
      <path class="cls-3" d="M198.08,346.67V342.1c-2,3.3-6.08,5.2-10.39,5.2A14.68,14.68,0,0,1,177,343a16.42,16.42,0,0,1,0-22.31,14.59,14.59,0,0,1,10.65-4.25c4.31,0,8.56,1.84,10.39,5.07v-4.44h5.71v29.61Zm-3-22a10.14,10.14,0,0,0-6.84-2.6,9.41,9.41,0,0,0-6.91,2.73,9.25,9.25,0,0,0-2.73,7,9.7,9.7,0,0,0,2.79,7.1,9.32,9.32,0,0,0,6.85,2.79,9.86,9.86,0,0,0,7-2.67,9.39,9.39,0,0,0,2.85-7.22A9,9,0,0,0,195,324.67Z"/>
      <path class="cls-3" d="M219.19,346.67h-5.77V317.06h5.77v6.66c1.46-4.88,4.18-7.29,8.24-7.29a9,9,0,0,1,5.13,1.14l-.88,5.39a9.61,9.61,0,0,0-4.38-1c-5.38,0-8.11,5.58-8.11,13.95Z"/>
      <path class="cls-3" d="M246.45,317.06h6.27v4.88h-6.27v24.73h-5.77V321.94h-5.33v-4.88h5.33V305.91h5.77Z"/>
      <path class="cls-3" d="M265,346.67h-5.77V317.06H265v4.44c1.71-3.29,5.64-5.07,9.25-5.07,7.35,0,11.41,4.75,11.41,13.12v17.12h-5.77V329.93c0-4.88-2.47-7.86-6.53-7.86-4.62,0-8.36,2.79-8.36,8.62Z"/>
      <path class="cls-3" d="M322.76,334.05h-24c.69,4.88,4.5,8.05,9.57,8.05a9.56,9.56,0,0,0,8.49-4.56c.57.19,1.4.57,2.54,1l2.41.89c-2.48,5.07-7.74,7.86-13.63,7.86A14.92,14.92,0,0,1,297.28,343,15.2,15.2,0,0,1,293,331.77a14.66,14.66,0,0,1,15.15-15.34,13.92,13.92,0,0,1,10.52,4.25c2.79,2.78,4.18,6.46,4.18,11.09A21.6,21.6,0,0,1,322.76,334.05Zm-5.64-4.5a8.7,8.7,0,0,0-9-7.92c-5,0-8.69,3-9.38,7.92Z"/>
      <path class="cls-3" d="M335.94,346.67h-5.77V317.06h5.77v6.66c1.46-4.88,4.19-7.29,8.24-7.29a9.07,9.07,0,0,1,5.14,1.14l-.89,5.39a9.57,9.57,0,0,0-4.37-1c-5.39,0-8.12,5.58-8.12,13.95Z"/>
    </g>
  </g>
</svg>